<?xml version="1.0" standalone="no"?>
<!DOCTYPE svg PUBLIC "-//W3C//DTD SVG 20010904//EN"
 "http://www.w3.org/TR/2001/REC-SVG-20010904/DTD/svg10.dtd">
<svg version="1.0" xmlns="http://www.w3.org/2000/svg"
 width="512.000000pt" height="512.000000pt" viewBox="0 0 512.000000 512.000000"
 preserveAspectRatio="xMidYMid meet">

<g transform="translate(0.000000,512.000000) scale(0.100000,-0.100000)"
fill="inherit" stroke="inherit">
<path d="M940 4169 c-207 -9 -354 -31 -388 -56 -14 -11 -35 -32 -46 -47 -21
-27 -21 -30 -21 -1365 l0 -1338 27 -35 c17 -22 46 -43 72 -53 43 -16 50 -16
168 5 154 28 456 38 620 21 312 -32 647 -129 998 -289 180 -82 202 -84 315
-26 321 166 659 267 1023 305 151 16 523 7 670 -16 107 -16 116 -16 158 0 26
10 55 31 72 53 l27 35 3 1311 c1 721 0 1326 -3 1344 -8 42 -57 98 -98 111
-102 33 -517 51 -742 32 -271 -23 -612 -88 -683 -131 -45 -28 -75 -92 -69
-148 5 -50 29 -87 77 -119 43 -30 87 -29 209 2 269 68 672 102 924 78 l67 -6
0 -1113 0 -1114 -142 6 c-79 3 -151 7 -161 9 -38 7 -362 -15 -493 -34 -302
-45 -650 -153 -905 -282 l-56 -28 -129 58 c-307 140 -586 219 -934 268 -133
18 -588 25 -662 10 l-38 -8 0 1115 0 1115 43 5 c168 20 472 12 686 -20 243
-35 497 -105 727 -201 l139 -58 5 -941 5 -941 27 -35 c71 -94 214 -82 269 22
18 33 19 80 19 1027 0 678 -3 1001 -11 1020 -17 44 -48 72 -129 113 -364 183
-854 315 -1245 335 -60 3 -137 7 -170 9 -33 1 -134 -1 -225 -5z"/>
<path d="M1215 3486 c-86 -38 -119 -138 -72 -220 35 -63 67 -75 249 -96 176
-21 278 -38 430 -75 103 -25 141 -23 191 9 31 21 67 91 67 131 0 39 -36 110
-66 129 -52 35 -329 94 -559 121 -157 18 -201 18 -240 1z"/>
<path d="M3619 3481 c-270 -37 -481 -89 -523 -128 -56 -51 -69 -119 -37 -189
38 -83 113 -102 259 -65 122 31 235 50 408 70 93 11 174 26 192 35 51 26 77
73 77 138 0 61 -17 94 -69 132 -37 28 -134 30 -307 7z"/>
<path d="M1215 2846 c-86 -38 -119 -138 -72 -220 35 -63 67 -75 249 -96 176
-21 278 -38 430 -75 103 -25 141 -23 191 9 31 21 67 91 67 131 0 39 -36 110
-66 129 -52 35 -329 94 -559 121 -157 18 -201 18 -240 1z"/>
<path d="M3619 2841 c-270 -37 -481 -89 -523 -128 -56 -51 -69 -119 -37 -189
38 -83 113 -102 259 -65 122 31 235 50 408 70 93 11 174 26 192 35 51 26 77
73 77 138 0 61 -17 94 -69 132 -37 28 -134 30 -307 7z"/>
<path d="M1215 2206 c-86 -38 -119 -138 -72 -220 35 -63 67 -75 249 -96 176
-21 278 -38 430 -75 103 -25 141 -23 191 9 31 21 67 91 67 131 0 39 -36 110
-66 129 -52 35 -329 94 -559 121 -157 18 -201 18 -240 1z"/>
</g>
</svg>
