<svg width="73" height="73" viewBox="0 0 73 73" fill="none" xmlns="http://www.w3.org/2000/svg">
<path d="M9.62457 71.6312C11.2855 72.3411 13.1217 72.5338 14.8938 72.1844C16.6659 71.835 18.2915 70.9596 19.5587 69.6724L37.4589 51.8695L55.3591 69.6724C56.1937 70.5192 57.188 71.1921 58.2844 71.6521C59.3808 72.112 60.5576 72.35 61.7466 72.3521C62.9687 72.3486 64.1781 72.1036 65.3053 71.6312C66.9798 70.9536 68.411 69.7868 69.4121 68.2832C70.4133 66.7796 70.9378 65.0091 70.9172 63.2028V15.2083C70.9124 11.1763 70.9172 0 70.9172 0C70.9172 0 59.7409 0.00482973 55.7089 0H19.2089C15.1768 0.00482973 4.00053 0 4.00053 0C4.00053 0 4.00536 11.1763 4.00053 15.2083V63.2028C3.9809 65.0105 4.5072 66.782 5.51061 68.2858C6.51401 69.7895 7.94783 70.9555 9.62457 71.6312Z" fill="#EF4444"/>
</svg>
