<?xml version="1.0" standalone="no"?>
<!DOCTYPE svg PUBLIC "-//W3C//DTD SVG 20010904//EN"
 "http://www.w3.org/TR/2001/REC-SVG-20010904/DTD/svg10.dtd">
<svg version="1.0" xmlns="http://www.w3.org/2000/svg"
 width="1440.000000pt" height="1131.000000pt" viewBox="0 0 1440.000000 1131.000000"
 preserveAspectRatio="xMidYMid meet">
<metadata>
Created by potrace 1.10, written by Peter Selinger 2001-2011
</metadata>
<g transform="translate(0.000000,1131.000000) scale(0.100000,-0.100000)"
fill="inherit" stroke="none">
<path d="M750 7374 c0 -35 74 -285 95 -319 6 -11 15 -40 19 -65 7 -44 16 -80
41 -150 6 -19 22 -66 35 -105 12 -38 29 -77 36 -85 7 -8 16 -28 19 -45 9 -37
43 -139 60 -180 38 -90 55 -165 37 -165 -10 0 -47 41 -69 76 -10 18 -12 18
-29 2 -17 -16 -17 -19 1 -57 10 -22 37 -58 61 -80 29 -26 44 -48 44 -64 0 -13
8 -32 19 -41 10 -9 28 -46 40 -81 18 -52 20 -68 10 -83 -15 -24 -2 -62 46
-131 18 -26 36 -58 40 -71 9 -30 76 -159 99 -192 9 -12 16 -30 16 -40 0 -9 14
-39 30 -65 17 -26 30 -52 30 -59 0 -6 17 -31 38 -55 22 -24 45 -56 53 -70 8
-15 26 -49 42 -78 15 -28 31 -51 36 -51 5 0 19 -16 31 -35 12 -20 54 -75 93
-124 40 -49 79 -98 87 -111 73 -108 332 -376 426 -441 27 -18 76 -59 109 -91
32 -33 83 -75 112 -94 29 -19 57 -42 62 -51 5 -9 25 -26 46 -37 40 -23 48 -39
22 -44 -10 -2 -21 7 -28 21 -8 18 -24 29 -57 37 -25 6 -59 22 -76 36 -17 14
-51 40 -76 59 -135 103 -184 144 -273 228 -102 95 -234 226 -348 344 -64 66
-140 175 -153 220 -4 12 -21 32 -38 44 -16 12 -46 47 -65 78 -20 31 -48 70
-63 86 -43 49 -166 267 -315 561 -51 100 -99 192 -109 205 -9 13 -21 40 -26
60 -9 33 -37 99 -59 139 -25 47 -51 109 -55 138 -6 34 -35 103 -92 217 l-35
70 5 -52 c5 -47 3 -53 -14 -53 -26 0 -60 75 -60 131 0 40 1 41 18 26 56 -51
52 25 -6 113 -2 3 -8 -3 -13 -13 -6 -9 -16 -17 -23 -17 -20 0 -66 65 -66 93 0
14 -6 27 -14 30 -7 3 -16 22 -20 41 -11 57 -26 42 -26 -26 0 -50 5 -67 25 -94
33 -43 94 -197 102 -254 7 -50 28 -100 44 -100 5 0 21 12 34 26 l24 25 16 -25
c24 -36 11 -50 -41 -42 -56 7 -59 -12 -9 -61 19 -19 37 -46 41 -61 3 -15 10
-37 15 -50 5 -13 9 -52 9 -88 0 -48 4 -66 15 -70 37 -14 69 -105 46 -129 -9
-10 -2 -26 45 -112 12 -21 33 -60 48 -87 15 -27 39 -67 55 -90 15 -22 36 -57
45 -78 10 -20 26 -44 37 -54 10 -9 19 -21 19 -27 0 -5 11 -22 25 -39 14 -16
25 -38 25 -48 0 -10 11 -32 25 -48 14 -17 25 -35 25 -41 0 -35 81 -160 160
-249 9 -9 21 -28 28 -42 7 -14 30 -35 51 -47 29 -17 47 -40 77 -99 30 -59 56
-91 112 -142 39 -36 72 -73 72 -83 0 -19 44 -59 65 -59 13 0 107 -105 165
-184 19 -26 50 -64 67 -84 38 -43 42 -62 13 -62 -27 0 -432 404 -459 459 -12
22 -29 42 -40 46 -35 11 -70 46 -89 88 -11 23 -28 52 -38 65 -11 12 -32 41
-49 63 -16 23 -51 64 -77 91 -27 28 -48 57 -48 65 0 19 -35 64 -44 56 -3 -3
-6 -13 -6 -21 0 -23 65 -156 84 -172 10 -8 34 -39 53 -70 19 -30 47 -68 62
-85 15 -16 38 -47 52 -67 13 -21 28 -38 32 -38 12 0 107 -91 107 -103 0 -6 22
-36 48 -66 26 -31 59 -72 72 -91 13 -19 79 -92 147 -162 68 -70 123 -131 123
-136 0 -5 17 -18 38 -27 44 -21 100 -65 203 -161 42 -40 87 -75 100 -79 13 -4
44 -27 69 -51 25 -24 74 -62 109 -86 119 -80 135 -91 160 -114 14 -13 36 -24
48 -24 12 0 25 -4 28 -10 3 -6 17 -10 30 -10 13 0 25 -3 27 -7 7 -18 87 -71
138 -92 73 -30 179 -79 210 -96 39 -22 61 -31 120 -50 30 -10 62 -24 70 -31 8
-7 43 -22 77 -33 33 -11 77 -30 97 -41 19 -12 61 -24 93 -27 60 -6 184 -52
214 -79 9 -8 34 -18 55 -21 22 -3 52 -12 67 -20 16 -8 66 -18 112 -23 47 -5
101 -16 122 -25 21 -9 53 -23 71 -31 18 -8 43 -14 56 -14 14 0 66 -11 118 -24
51 -13 125 -24 163 -25 39 -1 104 -4 145 -7 41 -3 86 -5 100 -4 49 3 66 2 125
-8 120 -22 450 -35 589 -23 72 5 208 10 301 10 182 -1 328 12 396 36 23 8 60
15 83 15 22 0 72 7 111 15 38 8 90 15 115 15 25 0 72 7 105 15 33 8 78 14 101
15 22 0 63 7 90 15 27 8 78 18 114 21 80 8 149 25 215 54 28 12 75 24 105 27
30 3 66 12 80 19 24 13 68 27 140 44 19 5 69 20 110 34 41 14 82 26 92 26 10
0 35 9 55 20 21 11 46 20 55 20 10 0 26 4 36 10 9 5 64 25 122 44 58 19 125
46 150 60 25 14 54 26 65 26 52 0 230 75 455 191 91 48 167 79 190 79 8 0 55
23 105 51 49 28 119 62 155 76 64 25 83 35 208 107 35 20 68 36 72 36 5 0 21
10 37 23 34 28 100 67 114 67 21 0 206 94 229 117 43 42 144 113 170 119 41
10 125 60 217 129 47 36 117 82 154 101 40 21 94 62 129 97 33 34 60 54 60 46
0 -8 -7 -24 -15 -35 -8 -10 -15 -25 -15 -33 0 -8 -16 -30 -36 -50 -20 -20 -63
-77 -95 -128 -33 -50 -78 -108 -100 -128 -22 -20 -55 -62 -74 -93 -18 -31 -54
-75 -80 -97 -26 -22 -62 -63 -81 -92 -18 -28 -46 -61 -63 -74 -16 -12 -39 -43
-50 -69 -15 -35 -35 -57 -82 -91 -99 -70 -149 -119 -149 -145 0 -13 -21 -47
-51 -81 -67 -77 -92 -127 -84 -174 5 -31 3 -37 -14 -42 -13 -3 -21 -13 -21
-27 0 -12 -22 -44 -49 -73 -27 -29 -65 -79 -85 -112 -20 -33 -55 -86 -77 -117
-47 -67 -63 -128 -33 -128 11 0 49 29 84 65 36 36 73 73 83 83 70 66 95 93
143 154 46 56 60 68 84 68 30 0 42 -22 20 -35 -20 -12 -51 -87 -48 -115 3 -28
5 -27 98 62 117 111 137 125 153 109 9 -9 -10 -32 -75 -99 -80 -80 -118 -137
-118 -177 0 -14 3 -14 32 1 66 34 233 178 277 238 16 23 54 57 84 76 33 21 65
50 77 72 11 20 39 51 62 69 22 18 53 52 67 74 14 23 51 63 81 89 30 26 64 55
75 65 11 10 74 75 140 146 66 70 141 149 166 174 25 25 53 60 62 76 15 30 102
138 195 244 62 71 166 208 232 307 57 85 111 160 133 184 18 20 179 233 287
379 47 64 116 157 152 206 37 50 84 113 103 140 20 28 86 118 147 200 106 142
255 347 375 515 30 41 70 98 91 126 20 27 59 81 86 120 28 38 67 90 88 115 39
48 62 95 50 103 -8 4 -110 -16 -163 -32 -19 -6 -92 -20 -164 -32 -71 -12 -133
-24 -136 -26 -11 -6 -155 -33 -214 -39 -33 -4 -80 -13 -105 -20 -25 -8 -88
-19 -140 -26 -52 -6 -117 -17 -145 -25 -95 -25 -239 -54 -269 -54 -16 0 -55
-6 -85 -14 -114 -29 -188 -45 -281 -61 -52 -9 -122 -22 -155 -30 -78 -17 -208
-42 -265 -50 -25 -3 -58 -10 -75 -15 -16 -5 -59 -16 -95 -26 -36 -9 -87 -23
-115 -30 -27 -7 -113 -27 -190 -44 -138 -31 -200 -46 -312 -75 -32 -8 -125
-31 -208 -51 -148 -35 -337 -88 -355 -99 -6 -3 -36 -10 -67 -15 -32 -5 -83
-20 -113 -33 -74 -33 -111 -45 -204 -68 -43 -10 -86 -24 -95 -29 -27 -16 78
-12 139 6 30 9 93 26 140 39 47 12 109 30 139 39 30 9 70 16 89 16 39 0 206
43 260 67 21 9 53 17 74 18 20 2 83 14 140 28 56 14 131 29 166 32 34 4 65 11
68 16 3 5 20 9 38 9 18 0 45 9 59 20 18 14 39 20 70 19 24 -1 50 2 58 6 7 5
34 13 59 17 25 5 68 13 95 19 80 16 169 26 188 21 27 -7 20 -22 -11 -22 -15 0
-59 -7 -97 -16 -39 -8 -90 -18 -115 -21 -25 -3 -50 -9 -55 -14 -6 -4 -35 -13
-65 -18 -92 -17 -153 -30 -195 -41 -22 -6 -56 -15 -75 -20 -19 -4 -48 -13 -65
-19 -37 -13 -151 -45 -315 -88 -30 -8 -75 -21 -100 -29 -25 -8 -55 -14 -68
-14 -13 0 -32 -5 -43 -11 -11 -6 -46 -17 -77 -25 -84 -23 -211 -58 -357 -99
-71 -20 -148 -41 -170 -47 -22 -6 -51 -19 -64 -30 -13 -10 -40 -18 -60 -18
-22 0 -56 -12 -86 -30 -27 -16 -59 -30 -70 -30 -11 0 -30 -7 -42 -15 -12 -8
-57 -26 -100 -39 -121 -37 -158 -53 -161 -69 -4 -18 28 -31 42 -17 5 5 24 10
42 10 17 0 51 9 75 20 24 11 59 20 78 20 19 0 48 4 65 10 17 5 58 16 91 25 33
9 83 23 110 31 53 17 106 16 112 -1 4 -15 -55 -44 -96 -47 -45 -4 -51 -24 -9
-31 18 -3 48 -9 67 -13 39 -8 97 17 106 46 7 23 60 31 94 14 20 -10 36 -10 66
-3 22 6 56 14 75 18 19 5 47 13 62 19 14 6 55 14 90 17 34 4 83 13 108 20 25
8 86 24 135 35 256 59 355 82 410 94 33 7 77 21 99 30 21 9 51 16 66 16 15 0
56 8 91 19 93 27 231 27 188 0 -8 -5 -28 -9 -45 -9 -16 0 -34 -4 -40 -8 -13
-13 -243 -81 -359 -108 -38 -8 -97 -26 -130 -38 -33 -12 -76 -28 -95 -35 -19
-8 -57 -18 -85 -23 -27 -6 -102 -26 -165 -45 -63 -20 -142 -42 -175 -50 -109
-25 -212 -53 -255 -68 -101 -37 -230 -75 -254 -75 -15 0 -41 -6 -59 -13 -18
-8 -48 -17 -67 -20 -20 -4 -53 -21 -73 -38 -35 -29 -37 -33 -23 -48 14 -16 13
-19 -14 -39 -16 -12 -33 -22 -37 -22 -10 -1 -53 -36 -53 -44 0 -17 86 -4 124
19 32 19 62 26 122 30 67 5 82 9 102 30 20 22 29 24 65 19 23 -4 49 -11 58
-15 11 -6 21 -4 29 6 7 9 30 15 54 15 23 0 51 6 62 14 32 23 193 82 259 96
109 23 129 29 199 65 46 23 84 35 111 35 31 0 47 6 65 25 14 15 35 25 52 25
15 0 42 9 60 20 43 26 198 30 198 5 0 -8 -12 -18 -27 -21 -16 -4 -33 -10 -38
-15 -6 -4 -31 -11 -55 -15 -25 -4 -65 -17 -90 -29 -25 -13 -64 -26 -87 -30
-22 -3 -49 -15 -58 -26 -10 -10 -34 -21 -54 -25 -20 -3 -63 -16 -96 -29 -33
-13 -75 -29 -92 -35 -45 -17 -41 -28 10 -35 62 -10 228 35 269 72 9 8 67 23
128 34 61 10 119 23 130 29 10 5 33 10 51 10 17 0 46 9 63 19 28 17 79 29 226
51 30 5 71 13 90 19 19 6 48 11 64 11 16 0 37 6 45 14 9 7 39 18 66 24 81 16
166 41 213 62 56 25 122 27 122 4 0 -28 -169 -183 -215 -198 -41 -12 -125 -74
-183 -134 -33 -34 -71 -64 -88 -68 -36 -9 -105 -55 -162 -108 -50 -47 -147
-110 -254 -165 -42 -21 -99 -54 -125 -73 -26 -19 -61 -42 -78 -50 -193 -98
-375 -194 -397 -209 -15 -11 -42 -25 -60 -31 -18 -6 -49 -22 -68 -35 -19 -12
-42 -23 -51 -23 -9 0 -34 -13 -55 -28 -21 -15 -100 -59 -174 -96 -130 -66
-196 -96 -345 -156 -38 -15 -104 -44 -145 -63 -85 -39 -123 -54 -300 -122 -69
-26 -145 -56 -170 -67 -43 -20 -306 -108 -420 -141 -146 -43 -400 -103 -560
-133 -14 -3 -54 -11 -90 -19 -73 -16 -147 -28 -299 -50 -56 -8 -106 -17 -110
-19 -9 -6 -208 -25 -421 -40 -917 -64 -1698 56 -2485 381 -68 28 -397 191
-465 230 -166 96 -443 298 -614 448 -195 172 -486 503 -583 664 -18 30 -49 73
-68 95 -19 22 -35 44 -35 49 0 5 -13 26 -28 46 -15 20 -36 54 -47 76 -33 67
-87 155 -96 155 -21 0 -6 -54 29 -106 20 -31 40 -63 45 -70 4 -8 12 -22 17
-31 6 -10 14 -28 20 -41 5 -12 21 -39 35 -60 14 -20 25 -44 25 -53 0 -9 7 -22
15 -29 8 -6 30 -41 50 -78 20 -36 61 -93 91 -126 30 -34 54 -66 54 -73 0 -15
58 -63 76 -63 8 0 23 -20 34 -45 11 -25 24 -45 29 -45 6 0 19 -17 30 -37 19
-37 205 -233 221 -233 5 0 21 -17 37 -38 15 -21 53 -60 83 -86 30 -26 72 -62
93 -81 20 -19 42 -35 47 -35 6 0 10 -4 10 -10 0 -5 -7 -10 -15 -10 -8 0 -15 4
-15 10 0 5 -14 17 -31 25 -37 20 -111 75 -159 120 -19 18 -81 74 -136 124 -93
84 -286 290 -308 330 -8 14 -58 75 -155 191 -16 19 -41 58 -56 85 -14 28 -36
61 -49 75 -12 14 -41 57 -64 95 -23 39 -46 77 -52 85 -5 8 -15 29 -23 45 -30
62 -85 161 -110 199 -15 21 -27 43 -27 48 0 9 -28 70 -140 303 -42 88 -83 176
-90 195 -7 19 -24 47 -38 62 -17 18 -28 48 -37 102 -10 57 -23 91 -50 131 -45
68 -65 116 -65 153 0 17 -12 45 -30 67 -16 21 -30 46 -30 56 0 10 -7 33 -15
51 -8 18 -28 78 -45 133 -18 55 -38 107 -45 115 -7 8 -15 32 -18 53 -6 39 -22
67 -38 67 -5 0 -9 -7 -9 -16z m11450 -734 c0 -5 -9 -10 -21 -10 -11 0 -17 5
-14 10 3 6 13 10 21 10 8 0 14 -4 14 -10z m-89 -14 c-18 -21 -161 -47 -161
-28 0 12 34 22 77 22 17 0 35 5 38 10 3 6 18 10 32 10 21 0 23 -3 14 -14z
m-288 -46 c7 0 6 -4 -3 -10 -19 -12 -70 -13 -70 -1 0 11 30 20 48 15 8 -2 19
-4 25 -4z m-99 -29 c8 -12 -18 -21 -59 -21 -19 0 -37 -4 -40 -10 -3 -5 -18
-10 -33 -9 -23 0 -20 4 23 24 52 24 100 31 109 16z m-210 -27 c25 -9 8 -24
-27 -24 -18 -1 -43 -7 -57 -15 -14 -8 -38 -14 -53 -15 -16 0 -38 -5 -50 -12
-12 -6 -65 -18 -117 -25 -52 -8 -113 -16 -135 -19 -22 -4 -46 -11 -53 -17 -12
-10 -55 -19 -147 -33 l-40 -6 30 26 c23 20 41 25 81 26 28 0 59 6 70 15 10 8
34 15 52 15 18 0 43 7 56 15 14 9 48 16 86 16 35 1 81 7 103 15 22 8 54 14 72
14 18 0 46 7 61 15 32 16 44 18 68 9z m-740 -150 c23 -9 9 -24 -22 -24 -15 0
-36 -7 -46 -15 -22 -17 -82 -20 -91 -5 -3 5 7 12 22 15 21 5 100 27 120 34 1
1 8 -2 17 -5z m-184 -63 c0 -10 -38 -18 -63 -13 -9 2 -15 8 -12 13 8 12 75 12
75 0z m-9632 -433 c18 -18 14 -38 -7 -38 -23 0 -35 15 -27 35 7 18 18 19 34 3z
m10095 -104 c12 -13 -12 -40 -88 -99 -43 -33 -96 -75 -117 -93 -42 -33 -58
-34 -58 -2 0 12 15 29 38 44 21 13 70 53 110 90 66 60 98 77 115 60z m-2509
-403 c18 -29 -31 -58 -66 -40 -19 10 -19 12 -2 30 18 20 59 26 68 10z m54 -9
c2 -7 -3 -12 -12 -12 -9 0 -16 7 -16 16 0 17 22 14 28 -4z m1980 6 c-3 -7 -12
-14 -21 -16 -12 -2 -15 1 -11 12 7 19 38 22 32 4z m-7904 -933 c36 -15 48 -35
22 -35 -14 0 -78 49 -65 50 4 0 23 -7 43 -15z m1456 -675 c12 -8 9 -10 -13
-10 -16 0 -26 4 -22 10 8 12 16 12 35 0z"/>
<path d="M446 7081 c-10 -16 -1 -50 23 -81 25 -32 38 -20 18 17 -8 15 -19 39
-24 52 -7 17 -12 21 -17 12z"/>
<path d="M1275 6377 c11 -35 25 -44 25 -15 0 14 -7 29 -16 32 -12 5 -14 1 -9
-17z"/>
<path d="M1320 6280 c0 -22 25 -89 38 -102 7 -7 12 -18 12 -26 0 -7 6 -23 12
-35 7 -12 17 -35 23 -52 13 -40 68 -135 78 -135 11 0 8 38 -4 45 -5 4 -21 31
-35 60 -13 30 -29 57 -34 60 -6 3 -10 13 -10 22 0 8 -6 29 -14 46 -8 18 -17
43 -20 57 -7 31 -46 81 -46 60z"/>
<path d="M1496 5898 c7 -25 35 -61 41 -54 3 2 0 12 -6 23 -5 10 -12 26 -15 36
-3 9 -10 17 -16 17 -7 0 -9 -9 -4 -22z"/>
</g>
</svg>
