<?xml version="1.0" standalone="no"?>
<svg viewBox="0 0 200 200" xmlns="http://www.w3.org/2000/svg">
  <path fill="inherit" d="M34.7,-62.9C42.6,-55.5,45,-41.5,54.5,-29.8C64,-18.2,80.6,-9.1,83.1,1.4C85.6,12,73.9,23.9,62.1,31.7C50.4,39.5,38.7,43.2,28.4,46.9C18,50.7,9,54.6,-0.5,55.5C-10,56.4,-20,54.2,-32.1,51.4C-44.2,48.6,-58.3,45.2,-64.7,36.6C-71,27.9,-69.6,14,-67.6,1.2C-65.6,-11.6,-63,-23.3,-56.7,-32C-50.4,-40.7,-40.3,-46.6,-30.2,-52.7C-20.2,-58.8,-10.1,-65.1,1.7,-68C13.4,-70.9,26.8,-70.3,34.7,-62.9Z" transform="translate(100 100)" />
</svg>
