<svg viewBox="0 0 200 200" xmlns="http://www.w3.org/2000/svg">
  <path fill="inherit" d="M25.9,-51.3C32.4,-41.2,35.5,-31.7,45.2,-23.3C54.9,-14.9,71.2,-7.4,77.2,3.5C83.3,14.4,79.1,28.8,68.5,35.7C57.9,42.6,40.9,42,28.4,42.8C16,43.6,8,45.8,-0.5,46.7C-9,47.6,-18,47.2,-26.6,44.2C-35.2,41.1,-43.3,35.4,-54.6,27.6C-65.9,19.8,-80.4,9.9,-81.7,-0.7C-83,-11.4,-71.1,-22.8,-61.2,-32.9C-51.2,-43,-43.1,-51.8,-33.2,-60C-23.3,-68.1,-11.7,-75.6,-1,-73.9C9.7,-72.3,19.5,-61.4,25.9,-51.3Z" transform="translate(100 100)" />
</svg>