<?xml version="1.0" standalone="no"?>
<!DOCTYPE svg PUBLIC "-//W3C//DTD SVG 20010904//EN"
 "http://www.w3.org/TR/2001/REC-SVG-20010904/DTD/svg10.dtd">
<svg version="1.0" xmlns="http://www.w3.org/2000/svg"
 width="512.000000pt" height="512.000000pt" viewBox="0 0 512.000000 512.000000"
 preserveAspectRatio="xMidYMid meet">
<metadata>
Created by potrace 1.10, written by Peter Selinger 2001-2011
</metadata>
<g transform="translate(0.000000,512.000000) scale(0.100000,-0.100000)"
fill="#000000" stroke="none">
<path d="M718 4280 c-201 -18 -247 -35 -280 -101 -17 -32 -18 -109 -18 -1184
0 -1285 -5 -1192 70 -1243 39 -27 53 -26 245 3 194 29 507 16 716 -30 220 -49
524 -156 711 -251 73 -37 111 -32 236 31 451 226 925 302 1471 234 91 -12 100
-11 131 7 18 10 42 32 54 47 l21 28 3 1162 c2 1091 1 1164 -15 1196 -38 73
-82 86 -345 101 -271 15 -541 -7 -808 -66 -160 -36 -195 -52 -221 -107 -29
-60 -20 -108 31 -159 33 -33 44 -38 85 -38 26 0 81 9 124 20 180 46 318 62
573 67 136 3 259 3 273 -1 l25 -6 -2 -977 -3 -978 -85 5 c-160 9 -435 2 -560
-14 -289 -38 -595 -131 -862 -261 l-36 -18 -129 58 c-159 71 -381 145 -535
179 -231 52 -314 60 -611 60 l-277 1 2 975 3 975 115 9 c140 11 438 -6 590
-33 204 -37 429 -104 615 -184 l80 -34 5 -824 c5 -773 6 -827 23 -852 58 -89
181 -86 237 5 19 32 20 53 20 914 l0 881 -22 34 c-17 25 -51 48 -127 86 -256
128 -540 215 -866 264 -150 23 -501 33 -657 19z"/>
<path d="M1075 3686 c-100 -44 -120 -165 -40 -235 20 -17 40 -31 44 -31 86 0
350 -40 504 -77 105 -24 110 -25 153 -8 135 52 117 227 -29 269 -91 26 -308
65 -442 81 -154 18 -152 18 -190 1z"/>
<path d="M3220 3684 c-116 -14 -319 -52 -419 -79 -30 -8 -66 -26 -82 -41 -77
-74 -55 -191 44 -229 43 -16 47 -16 203 19 145 32 220 43 402 62 51 5 71 12
98 36 81 71 55 198 -49 237 -34 13 -50 13 -197 -5z"/>
<path d="M1037 3101 c-68 -60 -69 -151 -2 -210 38 -33 36 -32 240 -55 77 -9
190 -28 250 -42 166 -39 193 -40 235 -12 87 59 90 179 4 234 -56 37 -389 101
-575 111 l-115 6 -37 -32z"/>
<path d="M3165 3114 c-98 -13 -304 -54 -377 -74 -117 -33 -155 -170 -68 -244
47 -39 85 -41 207 -12 127 30 267 53 378 61 102 8 135 19 169 53 57 61 54 146
-9 201 -34 30 -40 31 -118 30 -45 -1 -127 -7 -182 -15z"/>
<path d="M1053 2550 c-18 -10 -40 -31 -49 -45 -22 -33 -22 -100 -1 -141 27
-52 59 -65 196 -80 154 -17 280 -39 386 -66 101 -25 156 -20 196 18 83 80 50
205 -64 239 -140 42 -467 95 -580 95 -34 0 -63 -7 -84 -20z"/>
</g>
</svg>
