<svg width="683" height="683" viewBox="0 0 683 683" fill="none" xmlns="http://www.w3.org/2000/svg">
<path d="M125.333 126.8C97.7333 128 78.1333 130.933 73.6 134.267C71.7333 135.733 68.9333 138.533 67.4667 140.533C64.6667 144.133 64.6667 144.533 64.6667 322.533V500.933L68.2667 505.6C70.5333 508.533 74.4 511.333 77.8667 512.667C83.6 514.8 84.5333 514.8 100.267 512C120.8 508.267 161.067 506.933 182.933 509.2C224.533 513.467 269.2 526.4 316 547.733C340 558.667 342.933 558.933 358 551.2C400.8 529.067 445.867 515.6 494.4 510.533C514.533 508.4 564.133 509.6 583.733 512.667C598 514.8 599.2 514.8 604.8 512.667C608.267 511.333 612.133 508.533 614.4 505.6L618 500.933L618.4 326.133C618.533 230 618.4 149.333 618 146.933C616.933 141.333 610.4 133.867 604.933 132.133C591.333 127.733 536 125.333 506 127.867C469.867 130.933 424.4 139.6 414.933 145.333C408.933 149.067 404.933 157.6 405.733 165.067C406.4 171.733 409.6 176.667 416 180.933C421.733 184.933 427.6 184.8 443.867 180.667C479.733 171.6 533.467 167.067 567.067 170.267L576 171.067V319.467V468L557.067 467.2C546.533 466.8 536.933 466.267 535.6 466C530.533 465.067 487.333 468 469.867 470.533C429.6 476.533 383.2 490.933 349.2 508.133L341.733 511.867L324.533 504.133C283.6 485.467 246.4 474.933 200 468.4C182.267 466 121.6 465.067 111.733 467.067L106.667 468.133V319.467V170.8L112.4 170.133C134.8 167.467 175.333 168.533 203.867 172.8C236.267 177.467 270.133 186.8 300.8 199.6L319.333 207.333L320 332.8L320.667 458.267L324.267 462.933C333.733 475.467 352.8 473.867 360.133 460C362.533 455.6 362.667 449.333 362.667 323.067C362.667 232.667 362.267 189.6 361.2 187.067C358.933 181.2 354.8 177.467 344 172C295.467 147.6 230.133 130 178 127.333C170 126.933 159.733 126.4 155.333 126.133C150.933 126 137.467 126.267 125.333 126.8Z" fill="#F1F5F9"/>
<path d="M162 217.867C150.533 222.933 146.133 236.267 152.4 247.2C157.067 255.6 161.333 257.2 185.6 260C209.067 262.8 222.667 265.067 242.933 270C256.667 273.333 261.733 273.067 268.4 268.8C272.533 266 277.333 256.667 277.333 251.333C277.333 246.133 272.533 236.667 268.533 234.133C261.6 229.467 224.667 221.6 194 218C173.067 215.6 167.2 215.6 162 217.867Z" fill="#F1F5F9"/>
<path d="M482.533 218.533C446.533 223.467 418.4 230.4 412.8 235.6C405.333 242.4 403.6 251.467 407.867 260.8C412.933 271.867 422.933 274.4 442.4 269.467C458.667 265.333 473.733 262.8 496.8 260.133C509.2 258.667 520 256.667 522.4 255.467C529.2 252 532.667 245.733 532.667 237.067C532.667 228.933 530.4 224.533 523.467 219.467C518.533 215.733 505.6 215.467 482.533 218.533Z" fill="#F1F5F9"/>
<path d="M162 303.2C150.533 308.267 146.133 321.6 152.4 332.533C157.067 340.933 161.333 342.533 185.6 345.333C209.067 348.133 222.667 350.4 242.933 355.333C256.667 358.667 261.733 358.4 268.4 354.133C272.533 351.333 277.333 342 277.333 336.667C277.333 331.467 272.533 322 268.533 319.467C261.6 314.8 224.667 306.933 194 303.333C173.067 300.933 167.2 300.933 162 303.2Z" fill="#F1F5F9"/>
<path d="M482.533 303.867C446.533 308.8 418.4 315.733 412.8 320.933C405.333 327.733 403.6 336.8 407.867 346.133C412.933 357.2 422.933 359.733 442.4 354.8C458.667 350.667 473.733 348.133 496.8 345.467C509.2 344 520 342 522.4 340.8C529.2 337.333 532.667 331.067 532.667 322.4C532.667 314.267 530.4 309.867 523.467 304.8C518.533 301.067 505.6 300.8 482.533 303.867Z" fill="#F1F5F9"/>
<path d="M162 388.533C150.533 393.6 146.133 406.933 152.4 417.867C157.067 426.267 161.333 427.867 185.6 430.667C209.067 433.467 222.667 435.733 242.933 440.667C256.667 444 261.733 443.733 268.4 439.467C272.533 436.667 277.333 427.333 277.333 422C277.333 416.8 272.533 407.333 268.533 404.8C261.6 400.133 224.667 392.267 194 388.667C173.067 386.267 167.2 386.267 162 388.533Z" fill="#F1F5F9"/>
</svg>
