<svg width="14" height="14" viewBox="0 0 14 14" fill="inherit" xmlns="http://www.w3.org/2000/svg">
<path d="M7.97144 0.251689C7.79974 0.0905357 7.56688 9.53674e-07 7.32407 9.53674e-07C7.08127 9.53674e-07 6.8484 0.0905357 6.67671 0.251689C6.50502 0.412841 6.40856 0.631412 6.40856 0.859316V1.71863C6.40856 1.94654 6.50502 2.16511 6.67671 2.32626C6.8484 2.48741 7.08127 2.57795 7.32407 2.57795C7.56688 2.57795 7.79974 2.48741 7.97144 2.32626C8.14313 2.16511 8.23958 1.94654 8.23958 1.71863V0.859316C8.23958 0.631412 8.14313 0.412841 7.97144 0.251689Z" fill="#FBBF24"/>
<path d="M9.91352 9.30504C10.6003 8.66042 10.9861 7.78614 10.9861 6.87452C10.9861 5.96291 10.6003 5.08862 9.91352 4.44401C9.22676 3.7994 8.29531 3.43726 7.32407 3.43726C6.35284 3.43726 5.42139 3.7994 4.73462 4.44401C4.04786 5.08862 3.66204 5.96291 3.66204 6.87452C3.66204 7.78614 4.04786 8.66042 4.73462 9.30504C5.42139 9.94965 6.35284 10.3118 7.32407 10.3118C8.29531 10.3118 9.22676 9.94965 9.91352 9.30504Z" fill="#FBBF24"/>
<path d="M7.97144 11.4228C7.79974 11.2616 7.56688 11.1711 7.32407 11.1711C7.08127 11.1711 6.8484 11.2616 6.67671 11.4228C6.50502 11.5839 6.40856 11.8025 6.40856 12.0304V12.8897C6.40856 13.1176 6.50502 13.3362 6.67671 13.4974C6.8484 13.6585 7.08127 13.749 7.32407 13.749C7.56688 13.749 7.79974 13.6585 7.97144 13.4974C8.14313 13.3362 8.23958 13.1176 8.23958 12.8897V12.0304C8.23958 11.8025 8.14313 11.5839 7.97144 11.4228Z" fill="#FBBF24"/>
<path d="M3.08931 4.0224C2.97822 3.97917 2.8773 3.91582 2.7923 3.83599L2.14504 3.22845C1.97827 3.06638 1.88599 2.84932 1.88808 2.62401C1.89016 2.3987 1.98645 2.18317 2.15619 2.02384C2.32593 1.86452 2.55555 1.77415 2.7956 1.77219C3.03564 1.77023 3.2669 1.85685 3.43957 2.01338L4.08775 2.62091C4.17275 2.70075 4.24016 2.79552 4.28614 2.89982C4.33212 3.00411 4.35576 3.11588 4.35572 3.22875C4.35568 3.34162 4.33195 3.45338 4.28589 3.55764C4.23984 3.6619 4.17235 3.75663 4.08729 3.83641C4.00223 3.9162 3.90126 3.97947 3.79015 4.02263C3.67903 4.06579 3.55995 4.08798 3.4397 4.08794C3.31945 4.0879 3.20039 4.06563 3.08931 4.0224Z" fill="#FBBF24"/>
<path d="M3.43957 11.7357L4.08683 11.1281C4.2536 10.9661 4.34588 10.749 4.34379 10.5237C4.34171 10.2984 4.24542 10.0829 4.07568 9.92353C3.90594 9.76421 3.67632 9.67383 3.43627 9.67188C3.19623 9.66992 2.96497 9.75653 2.7923 9.91306L2.14504 10.5206C1.97827 10.6827 1.88599 10.8997 1.88808 11.125C1.89016 11.3504 1.98645 11.5659 2.15619 11.7252C2.32593 11.8845 2.55555 11.9749 2.7956 11.9769C3.03564 11.9788 3.2669 11.8922 3.43957 11.7357Z" fill="#FBBF24"/>
<path d="M2.47838 7.48215C2.30669 7.64331 2.07383 7.73384 1.83102 7.73384H0.915509C0.672701 7.73384 0.439838 7.64331 0.268147 7.48215C0.0964553 7.321 1.88327e-07 7.10243 1.88327e-07 6.87452C1.88327e-07 6.64662 0.0964553 6.42805 0.268147 6.2669C0.439838 6.10574 0.672701 6.01521 0.915509 6.01521H1.83102C2.07383 6.01521 2.30669 6.10574 2.47838 6.2669C2.65007 6.42805 2.74653 6.64662 2.74653 6.87452C2.74653 7.10243 2.65007 7.321 2.47838 7.48215Z" fill="#FBBF24"/>
<path d="M9.69158 0.859317C10.3051 2.13238 10.4907 3.55069 10.2237 4.92528C9.95678 6.29987 9.24991 7.56547 8.1973 8.55347C7.1447 9.54147 5.79633 10.205 4.33185 10.4555C2.86737 10.7061 1.35632 10.5319 0 9.95603C0.487977 10.9695 1.23062 11.8568 2.16423 12.5417C3.09783 13.2266 4.19452 13.6887 5.3602 13.8883C6.52589 14.088 7.72577 14.0192 8.85691 13.6879C9.98806 13.3566 11.0167 12.7727 11.8546 11.9862C12.6924 11.1998 13.3145 10.2343 13.6675 9.1726C14.0204 8.11088 14.0937 6.98465 13.881 5.89051C13.6683 4.79637 13.176 3.767 12.4463 2.8907C11.7167 2.0144 10.7714 1.31734 9.69158 0.859317Z" fill="inherit"/>
</svg>
