<svg width="14" height="14" viewBox="0 0 14 14" fill="inherit" xmlns="http://www.w3.org/2000/svg">
<path d="M9.69158 5.05886e-07C10.3051 1.35632 10.4907 2.86738 10.2237 4.33185C9.95678 5.79633 9.24991 7.1447 8.1973 8.1973C7.1447 9.24991 5.79633 9.95678 4.33185 10.2237C2.86737 10.4907 1.35632 10.3051 -1.88327e-07 9.69158C0.487977 10.7714 1.23062 11.7167 2.16423 12.4463C3.09783 13.176 4.19452 13.6683 5.3602 13.881C6.52589 14.0937 7.72577 14.0204 8.85691 13.6675C9.98806 13.3145 11.0167 12.6924 11.8546 11.8546C12.6924 11.0167 13.3145 9.98806 13.6675 8.85691C14.0204 7.72577 14.0937 6.52589 13.881 5.3602C13.6683 4.19452 13.176 3.09783 12.4463 2.16423C11.7167 1.23062 10.7714 0.487977 9.69158 5.05886e-07Z" fill="inherit"/>
</svg>
