<svg width="14" height="14" viewBox="0 0 14 14" fill="inherit" xmlns="http://www.w3.org/2000/svg">
<path fill-rule="evenodd" clip-rule="evenodd" d="M7 9.53674e-07C7.23206 9.53674e-07 7.45462 0.0921882 7.61872 0.256282C7.78281 0.420377 7.875 0.642937 7.875 0.875001V1.75C7.875 1.98207 7.78281 2.20462 7.61872 2.36872C7.45462 2.53281 7.23206 2.625 7 2.625C6.76794 2.625 6.54538 2.53281 6.38128 2.36872C6.21719 2.20462 6.125 1.98207 6.125 1.75V0.875001C6.125 0.642937 6.21719 0.420377 6.38128 0.256282C6.54538 0.0921882 6.76794 9.53674e-07 7 9.53674e-07ZM10.5 7C10.5 7.92826 10.1313 8.8185 9.47487 9.47487C8.8185 10.1313 7.92826 10.5 7 10.5C6.07174 10.5 5.1815 10.1313 4.52513 9.47487C3.86875 8.8185 3.5 7.92826 3.5 7C3.5 6.07174 3.86875 5.1815 4.52513 4.52513C5.1815 3.86875 6.07174 3.5 7 3.5C7.92826 3.5 8.8185 3.86875 9.47487 4.52513C10.1313 5.1815 10.5 6.07174 10.5 7ZM10.094 11.3313L10.7126 11.9499C10.8777 12.1093 11.0987 12.1975 11.3281 12.1955C11.5575 12.1935 11.777 12.1014 11.9392 11.9392C12.1014 11.777 12.1935 11.5575 12.1955 11.3281C12.1975 11.0987 12.1093 10.8777 11.9499 10.7126L11.3312 10.094C11.1662 9.93461 10.9452 9.84642 10.7158 9.84841C10.4864 9.85041 10.2669 9.94243 10.1047 10.1047C9.94243 10.2669 9.8504 10.4864 9.84841 10.7158C9.84642 10.9452 9.93461 11.1662 10.094 11.3313ZM11.949 2.05013C12.113 2.21421 12.2052 2.43673 12.2052 2.66875C12.2052 2.90077 12.113 3.12329 11.949 3.28738L11.3312 3.906C11.2505 3.98957 11.154 4.05623 11.0472 4.10209C10.9405 4.14795 10.8257 4.17209 10.7095 4.1731C10.5933 4.1741 10.4781 4.15197 10.3705 4.10797C10.263 4.06397 10.1653 3.999 10.0832 3.91685C10.001 3.83469 9.93603 3.73699 9.89203 3.62946C9.84804 3.52193 9.8259 3.40671 9.82691 3.29052C9.82792 3.17434 9.85205 3.05953 9.89791 2.95277C9.94377 2.84602 10.0104 2.74947 10.094 2.66875L10.7126 2.05013C10.8767 1.88609 11.0992 1.79394 11.3312 1.79394C11.5633 1.79394 11.7849 1.88609 11.949 2.05013ZM13.125 7.875C13.3571 7.875 13.5796 7.78281 13.7437 7.61872C13.9078 7.45462 14 7.23207 14 7C14 6.76794 13.9078 6.54538 13.7437 6.38128C13.5796 6.21719 13.3571 6.125 13.125 6.125H12.25C12.0179 6.125 11.7954 6.21719 11.6313 6.38128C11.4672 6.54538 11.375 6.76794 11.375 7C11.375 7.23207 11.4672 7.45462 11.6313 7.61872C11.7954 7.78281 12.0179 7.875 12.25 7.875H13.125ZM7 11.375C7.23206 11.375 7.45462 11.4672 7.61872 11.6313C7.78281 11.7954 7.875 12.0179 7.875 12.25V13.125C7.875 13.3571 7.78281 13.5796 7.61872 13.7437C7.45462 13.9078 7.23206 14 7 14C6.76794 14 6.54538 13.9078 6.38128 13.7437C6.21719 13.5796 6.125 13.3571 6.125 13.125V12.25C6.125 12.0179 6.21719 11.7954 6.38128 11.6313C6.54538 11.4672 6.76794 11.375 7 11.375ZM2.66875 3.906C2.74999 3.9873 2.84645 4.0518 2.95261 4.09582C3.05878 4.13984 3.17257 4.16251 3.2875 4.16255C3.40243 4.16259 3.51625 4.14 3.62244 4.09605C3.72864 4.05211 3.82514 3.98768 3.90644 3.90644C3.98773 3.8252 4.05223 3.72874 4.09625 3.62258C4.14027 3.51641 4.16295 3.40262 4.16299 3.28769C4.16303 3.17276 4.14043 3.05894 4.09649 2.95275C4.05255 2.84655 3.98811 2.75005 3.90688 2.66875L3.28737 2.05013C3.12235 1.89074 2.90132 1.80254 2.6719 1.80454C2.44248 1.80653 2.22302 1.89855 2.06078 2.06078C1.89855 2.22302 1.80653 2.44248 1.80454 2.6719C1.80254 2.90132 1.89074 3.12235 2.05012 3.28738L2.66875 3.906ZM3.906 11.3313L3.28737 11.9499C3.12235 12.1093 2.90132 12.1975 2.6719 12.1955C2.44248 12.1935 2.22302 12.1014 2.06078 11.9392C1.89855 11.777 1.80653 11.5575 1.80454 11.3281C1.80254 11.0987 1.89074 10.8777 2.05012 10.7126L2.66875 10.094C2.83378 9.93461 3.0548 9.84642 3.28423 9.84841C3.51365 9.85041 3.73311 9.94243 3.89534 10.1047C4.05757 10.2669 4.1496 10.4864 4.15159 10.7158C4.15358 10.9452 4.06539 11.1662 3.906 11.3313ZM1.75 7.875C1.98206 7.875 2.20462 7.78281 2.36872 7.61872C2.53281 7.45462 2.625 7.23207 2.625 7C2.625 6.76794 2.53281 6.54538 2.36872 6.38128C2.20462 6.21719 1.98206 6.125 1.75 6.125H0.875C0.642936 6.125 0.420376 6.21719 0.256282 6.38128C0.0921872 6.54538 0 6.76794 0 7C0 7.23207 0.0921872 7.45462 0.256282 7.61872C0.420376 7.78281 0.642936 7.875 0.875 7.875H1.75Z" fill="inherit"/>
</svg>
